<svg version="1.1" height="120" viewBox="0.0 0.0 734.0 650.0" fill="none" stroke="none" stroke-linecap="square" stroke-miterlimit="10" xmlns:xlink="http://www.w3.org/1999/xlink" xmlns="http://www.w3.org/2000/svg"><clipPath id="p.0"><path d="m0 0l734.0 0l0 650.0l-734.0 0l0 -650.0z" clip-rule="nonzero"/></clipPath><g clip-path="url(#p.0)"><path fill="#000000" fill-opacity="0.0" d="m0 0l734.0 0l0 650.0l-734.0 0z" fill-rule="evenodd"/><path fill="#ffffff" d="m132.73341 16.838709l0.67619324 5.1790104l-0.45040894 7.6567993l-10.13459 34.90659l-1.5758057 48.04267l13.512001 3.6031952l14.86319 7.206398l-6.981781 -14.638588l1.3511963 -9.232605l25.448196 -37.608994l19.591797 -19.367203l6.9817963 -11.035389l-5.6305847 14.18819l-17.339813 20.193527l-22.970398 36.9328l18.015991 28.599808l2.7024078 7.356537l-3.6031952 10.809601l7.4309998 6.981781l5.6306 0.22460938l-4.9544067 -10.359192l-1.5769958 -20.943016l3.378601 -6.7559967l11.2599945 -2.251999l40.535995 14.412804l34.6808 22.744598l-3.6032104 1.8016052l-30.627182 -19.367203l-45.265793 -12.160797l5.180191 29.952194l10.583801 -14.638596l9.684204 3.6031952l24.09581 39.4106l7.43219 38.959l-4.053604 -1.5758057l-6.7559967 -33.10498l-24.547394 -37.833603l-11.935013 29.276001l5.4048004 7.6567993l-6.7559967 15.989792l0 -16.4402l-4.053604 -3.6031952l-4.9543915 0.45039368l4.2781982 7.6567993l-14.412796 15.313614l-7.8814087 -6.305603l-2.251999 5.4048004l3.1528015 4.9543915l10.809601 4.053604l-3.6032104 3.8289948l-14.412796 -5.4048004l-22.970398 18.766663l23.8712 10.583817l16.664795 14.63858l33.329605 11.935013l1.3511963 3.6032104l-39.1848 -11.26001l-40.986404 -24.09581l-2.251999 -8.783386l10.359207 -15.313599l11.484604 -9.008011l5.8552094 0.22579956l-4.2782135 -7.882599l-2.9281921 -0.45039368l0.2257843 4.9543915l-8.557587 3.8289948l-34.68081 -4.9543915l6.7560043 47.5166l14.863205 33.32959l-1.5769958 3.378601l-19.14141 -38.509796l-8.107201 -42.787994l2.9270096 -10.809601l11.485794 -2.7023926l27.699013 5.6305847l-0.45040894 -3.8289948l-5.179001 -5.62941l-9.008003 2.7024078l-7.8825912 -1.3511963l-25.222404 -20.49379l-28.149406 34.005783l-7.8825912 26.798218l-7.6567993 11.2599945l-1.5758095 -1.8016052l6.7560005 -12.160797l6.98061 -30.176804l20.493786 -28.375198l12.611206 -7.2063904l5.4048004 1.3511963l-20.268005 -20.117874l-45.26579 -14.863197l-24.996609 -7.206398l0.22460938 -2.9270096l28.60099 5.8552017l43.238403 11.935013l9.007996 6.0809784l-12.83699 -28.150581l-5.8552017 -4.954399l4.279396 -6.305603l8.557594 4.0535965l2.9270096 -0.67500305l24.997795 7.6567993l0 -9.383926l3.8278046 -33.329597l13.287399 -36.256615z" fill-rule="evenodd"/><path stroke="#ffffff" stroke-width="4.0" stroke-linejoin="round" stroke-linecap="butt" d="m132.73341 16.838709l0.67619324 5.1790104l-0.45040894 7.6567993l-10.13459 34.90659l-1.5758057 48.04267l13.512001 3.6031952l14.86319 7.206398l-6.981781 -14.638588l1.3511963 -9.232605l25.448196 -37.608994l19.591797 -19.367203l6.9817963 -11.035389l-5.6305847 14.18819l-17.339813 20.193527l-22.970398 36.9328l18.015991 28.599808l2.7024078 7.356537l-3.6031952 10.809601l7.4309998 6.981781l5.6306 0.22460938l-4.9544067 -10.359192l-1.5769958 -20.943016l3.378601 -6.7559967l11.2599945 -2.251999l40.535995 14.412804l34.6808 22.744598l-3.6032104 1.8016052l-30.627182 -19.367203l-45.265793 -12.160797l5.180191 29.952194l10.583801 -14.638596l9.684204 3.6031952l24.09581 39.4106l7.43219 38.959l-4.053604 -1.5758057l-6.7559967 -33.10498l-24.547394 -37.833603l-11.935013 29.276001l5.4048004 7.6567993l-6.7559967 15.989792l0 -16.4402l-4.053604 -3.6031952l-4.9543915 0.45039368l4.2781982 7.6567993l-14.412796 15.313614l-7.8814087 -6.305603l-2.251999 5.4048004l3.1528015 4.9543915l10.809601 4.053604l-3.6032104 3.8289948l-14.412796 -5.4048004l-22.970398 18.766663l23.8712 10.583817l16.664795 14.63858l33.329605 11.935013l1.3511963 3.6032104l-39.1848 -11.26001l-40.986404 -24.09581l-2.251999 -8.783386l10.359207 -15.313599l11.484604 -9.008011l5.8552094 0.22579956l-4.2782135 -7.882599l-2.9281921 -0.45039368l0.2257843 4.9543915l-8.557587 3.8289948l-34.68081 -4.9543915l6.7560043 47.5166l14.863205 33.32959l-1.5769958 3.378601l-19.14141 -38.509796l-8.107201 -42.787994l2.9270096 -10.809601l11.485794 -2.7023926l27.699013 5.6305847l-0.45040894 -3.8289948l-5.179001 -5.62941l-9.008003 2.7024078l-7.8825912 -1.3511963l-25.222404 -20.49379l-28.149406 34.005783l-7.8825912 26.798218l-7.6567993 11.2599945l-1.5758095 -1.8016052l6.7560005 -12.160797l6.98061 -30.176804l20.493786 -28.375198l12.611206 -7.2063904l5.4048004 1.3511963l-20.268005 -20.117874l-45.26579 -14.863197l-24.996609 -7.206398l0.22460938 -2.9270096l28.60099 5.8552017l43.238403 11.935013l9.007996 6.0809784l-12.83699 -28.150581l-5.8552017 -4.954399l4.279396 -6.305603l8.557594 4.0535965l2.9270096 -0.67500305l24.997795 7.6567993l0 -9.383926l3.8278046 -33.329597l13.287399 -36.256615z" fill-rule="evenodd"/><path fill="#ffffff" d="m408.74207 415.88876l0 0c0 -12.698181 10.293915 -22.992126 22.992126 -22.992126l0 0c6.09787 0 11.946014 2.4223938 16.257874 6.734253c4.311859 4.311859 6.734253 10.160004 6.734253 16.257874l0 0c0 12.698212 -10.293945 22.992126 -22.992126 22.992126l0 0c-12.698212 0 -22.992126 -10.293915 -22.992126 -22.992126z" fill-rule="evenodd"/><path stroke="#ffffff" stroke-width="4.0" stroke-linejoin="round" stroke-linecap="butt" d="m408.74207 415.88876l0 0c0 -12.698181 10.293915 -22.992126 22.992126 -22.992126l0 0c6.09787 0 11.946014 2.4223938 16.257874 6.734253c4.311859 4.311859 6.734253 10.160004 6.734253 16.257874l0 0c0 12.698212 -10.293945 22.992126 -22.992126 22.992126l0 0c-12.698212 0 -22.992126 -10.293915 -22.992126 -22.992126z" fill-rule="evenodd"/><path fill="#ffffff" d="m408.74207 291.0761l0 0c0 -12.698181 10.293915 -22.992126 22.992126 -22.992126l0 0c6.09787 0 11.946014 2.4223938 16.257874 6.734253c4.311859 4.311859 6.734253 10.159973 6.734253 16.257874l0 0c0 12.698212 -10.293945 22.992126 -22.992126 22.992126l0 0c-12.698212 0 -22.992126 -10.293915 -22.992126 -22.992126z" fill-rule="evenodd"/><path stroke="#ffffff" stroke-width="4.0" stroke-linejoin="round" stroke-linecap="butt" d="m408.74207 291.0761l0 0c0 -12.698181 10.293915 -22.992126 22.992126 -22.992126l0 0c6.09787 0 11.946014 2.4223938 16.257874 6.734253c4.311859 4.311859 6.734253 10.159973 6.734253 16.257874l0 0c0 12.698212 -10.293945 22.992126 -22.992126 22.992126l0 0c-12.698212 0 -22.992126 -10.293915 -22.992126 -22.992126z" fill-rule="evenodd"/><path fill="#ffffff" d="m408.74207 540.7014l0 0c0 -12.698181 10.293915 -22.992126 22.992126 -22.992126l0 0c6.09787 0 11.946014 2.4223633 16.257874 6.734253c4.311859 4.3118286 6.734253 10.159973 6.734253 16.257874l0 0c0 12.698242 -10.293945 22.992126 -22.992126 22.992126l0 0c-12.698212 0 -22.992126 -10.293884 -22.992126 -22.992126z" fill-rule="evenodd"/><path stroke="#ffffff" stroke-width="4.0" stroke-linejoin="round" stroke-linecap="butt" d="m408.74207 540.7014l0 0c0 -12.698181 10.293915 -22.992126 22.992126 -22.992126l0 0c6.09787 0 11.946014 2.4223633 16.257874 6.734253c4.311859 4.3118286 6.734253 10.159973 6.734253 16.257874l0 0c0 12.698242 -10.293945 22.992126 -22.992126 22.992126l0 0c-12.698212 0 -22.992126 -10.293884 -22.992126 -22.992126z" fill-rule="evenodd"/><path fill="#ffffff" d="m512.2053 356.767l0 0c0 -12.698212 10.293884 -22.992126 22.992126 -22.992126l0 0c6.0979004 0 11.945984 2.4223633 16.257874 6.7342224c4.3118896 4.311859 6.734253 10.160004 6.734253 16.257904l0 0c0 12.698181 -10.293945 22.992126 -22.992126 22.992126l0 0c-12.698242 0 -22.992126 -10.293945 -22.992126 -22.992126z" fill-rule="evenodd"/><path stroke="#ffffff" stroke-width="4.0" stroke-linejoin="round" stroke-linecap="butt" d="m512.2053 356.767l0 0c0 -12.698212 10.293884 -22.992126 22.992126 -22.992126l0 0c6.0979004 0 11.945984 2.4223633 16.257874 6.7342224c4.3118896 4.311859 6.734253 10.160004 6.734253 16.257904l0 0c0 12.698181 -10.293945 22.992126 -22.992126 22.992126l0 0c-12.698242 0 -22.992126 -10.293945 -22.992126 -22.992126z" fill-rule="evenodd"/><path fill="#ffffff" d="m512.2053 475.01056l0 0c0 -12.698212 10.293884 -22.992126 22.992126 -22.992126l0 0c6.0979004 0 11.945984 2.4223633 16.257874 6.7342224c4.3118896 4.311859 6.734253 10.160004 6.734253 16.257904l0 0c0 12.698212 -10.293945 22.992126 -22.992126 22.992126l0 0c-12.698242 0 -22.992126 -10.293915 -22.992126 -22.992126z" fill-rule="evenodd"/><path stroke="#ffffff" stroke-width="4.0" stroke-linejoin="round" stroke-linecap="butt" d="m512.2053 475.01056l0 0c0 -12.698212 10.293884 -22.992126 22.992126 -22.992126l0 0c6.0979004 0 11.945984 2.4223633 16.257874 6.7342224c4.3118896 4.311859 6.734253 10.160004 6.734253 16.257904l0 0c0 12.698212 -10.293945 22.992126 -22.992126 22.992126l0 0c-12.698242 0 -22.992126 -10.293915 -22.992126 -22.992126z" fill-rule="evenodd"/><path fill="#ffffff" d="m305.2788 356.767l0 0c0 -12.698212 10.293915 -22.992126 22.992126 -22.992126l0 0c6.09787 0 11.946014 2.4223633 16.257874 6.7342224c4.311859 4.311859 6.734253 10.160004 6.734253 16.257904l0 0c0 12.698181 -10.293945 22.992126 -22.992126 22.992126l0 0c-12.698212 0 -22.992126 -10.293945 -22.992126 -22.992126z" fill-rule="evenodd"/><path stroke="#ffffff" stroke-width="4.0" stroke-linejoin="round" stroke-linecap="butt" d="m305.2788 356.767l0 0c0 -12.698212 10.293915 -22.992126 22.992126 -22.992126l0 0c6.09787 0 11.946014 2.4223633 16.257874 6.7342224c4.311859 4.311859 6.734253 10.160004 6.734253 16.257904l0 0c0 12.698181 -10.293945 22.992126 -22.992126 22.992126l0 0c-12.698212 0 -22.992126 -10.293945 -22.992126 -22.992126z" fill-rule="evenodd"/><path fill="#ffffff" d="m304.59558 475.01056l0 0c0 -12.698212 10.293945 -22.992126 22.992126 -22.992126l0 0c6.0979004 0 11.946045 2.4223633 16.257904 6.7342224c4.311859 4.311859 6.7342224 10.160004 6.7342224 16.257904l0 0c0 12.698212 -10.293915 22.992126 -22.992126 22.992126l0 0c-12.698181 0 -22.992126 -10.293915 -22.992126 -22.992126z" fill-rule="evenodd"/><path stroke="#ffffff" stroke-width="4.0" stroke-linejoin="round" stroke-linecap="butt" d="m304.59558 475.01056l0 0c0 -12.698212 10.293945 -22.992126 22.992126 -22.992126l0 0c6.0979004 0 11.946045 2.4223633 16.257904 6.7342224c4.311859 4.311859 6.7342224 10.160004 6.7342224 16.257904l0 0c0 12.698212 -10.293915 22.992126 -22.992126 22.992126l0 0c-12.698181 0 -22.992126 -10.293915 -22.992126 -22.992126z" fill-rule="evenodd"/><path fill="#ffffff" d="m169.92914 415.88876l0 0c0 -12.698181 10.293915 -22.992126 22.992126 -22.992126l0 0c6.097885 0 11.94603 2.4223938 16.257889 6.734253c4.311859 4.311859 6.7342377 10.160004 6.7342377 16.257874l0 0c0 12.698212 -10.29393 22.992126 -22.992126 22.992126l0 0c-12.698212 0 -22.992126 -10.293915 -22.992126 -22.992126z" fill-rule="evenodd"/><path stroke="#ffffff" stroke-width="4.0" stroke-linejoin="round" stroke-linecap="butt" d="m169.92914 415.88876l0 0c0 -12.698181 10.293915 -22.992126 22.992126 -22.992126l0 0c6.097885 0 11.94603 2.4223938 16.257889 6.734253c4.311859 4.311859 6.7342377 10.160004 6.7342377 16.257874l0 0c0 12.698212 -10.29393 22.992126 -22.992126 22.992126l0 0c-12.698212 0 -22.992126 -10.293915 -22.992126 -22.992126z" fill-rule="evenodd"/><path fill="#000000" fill-opacity="0.0" d="m344.5288 340.5091l70.96063 -33.165344" fill-rule="evenodd"/><path stroke="#ffffff" stroke-width="4.0" stroke-linejoin="round" stroke-linecap="butt" d="m344.5288 340.5091l70.96063 -33.165344" fill-rule="evenodd"/><path fill="#000000" fill-opacity="0.0" d="m447.99207 307.334l70.96063 33.165344" fill-rule="evenodd"/><path stroke="#ffffff" stroke-width="4.0" stroke-linejoin="round" stroke-linecap="butt" d="m447.99207 307.334l70.96063 33.165344" fill-rule="evenodd"/><path fill="#000000" fill-opacity="0.0" d="m518.9396 491.26843l-70.96066 33.165344" fill-rule="evenodd"/><path stroke="#ffffff" stroke-width="4.0" stroke-linejoin="round" stroke-linecap="butt" d="m518.9396 491.26843l-70.96066 33.165344" fill-rule="evenodd"/><path fill="#000000" fill-opacity="0.0" d="m328.27094 379.75912l-0.6929321 72.25195" fill-rule="evenodd"/><path stroke="#ffffff" stroke-width="4.0" stroke-linejoin="round" stroke-linecap="butt" d="m328.27094 379.75912l-0.6929321 72.25195" fill-rule="evenodd"/><path fill="#000000" fill-opacity="0.0" d="m344.5288 373.02487l70.96063 26.614166" fill-rule="evenodd"/><path stroke="#ffffff" stroke-width="4.0" stroke-linejoin="round" stroke-linecap="butt" d="m344.5288 373.02487l70.96063 26.614166" fill-rule="evenodd"/><path fill="#000000" fill-opacity="0.0" d="m431.7342 517.7093l0 -78.834625" fill-rule="evenodd"/><path stroke="#ffffff" stroke-width="4.0" stroke-linejoin="round" stroke-linecap="butt" d="m431.7342 517.7093l0 -78.834625" fill-rule="evenodd"/><path fill="#000000" fill-opacity="0.0" d="m518.9396 373.02487l-70.96066 26.614166" fill-rule="evenodd"/><path stroke="#ffffff" stroke-width="4.0" stroke-linejoin="round" stroke-linecap="butt" d="m518.9396 373.02487l-70.96066 26.614166" fill-rule="evenodd"/><path fill="#000000" fill-opacity="0.0" d="m447.99207 432.14667l70.96063 26.614166" fill-rule="evenodd"/><path stroke="#ffffff" stroke-width="4.0" stroke-linejoin="round" stroke-linecap="butt" d="m447.99207 432.14667l70.96063 26.614166" fill-rule="evenodd"/><path fill="#000000" fill-opacity="0.0" d="m209.17915 432.14667l95.401566 42.86612" fill-rule="evenodd"/><path stroke="#ffffff" stroke-width="4.0" stroke-linejoin="round" stroke-linecap="butt" d="m209.17915 432.14667l95.401566 42.86612" fill-rule="evenodd"/><path fill="#000000" fill-opacity="0.0" d="m209.17915 399.6309l96.0945 -42.86615" fill-rule="evenodd"/><path stroke="#ffffff" stroke-width="4.0" stroke-linejoin="round" stroke-linecap="butt" d="m209.17915 399.6309l96.0945 -42.86615" fill-rule="evenodd"/><path fill="#000000" fill-opacity="0.0" d="m209.11023 269.1801l-16.188965 123.71652" fill-rule="evenodd"/><path stroke="#ffffff" stroke-width="4.0" stroke-linejoin="round" stroke-linecap="butt" d="m209.11023 269.1801l-16.188965 123.71652" fill-rule="evenodd"/></g></svg>