<svg version="1.1" height="120" viewBox="0.0 0.0 734.0 650.0" fill="none" stroke="none" stroke-linecap="square" stroke-miterlimit="10" xmlns:xlink="http://www.w3.org/1999/xlink" xmlns="http://www.w3.org/2000/svg"><clipPath id="p.0"><path d="m0 0l734.0 0l0 650.0l-734.0 0l0 -650.0z" clip-rule="nonzero"/></clipPath><g clip-path="url(#p.0)"><path fill="#000000" fill-opacity="0.0" d="m0 0l734.0 0l0 650.0l-734.0 0z" fill-rule="evenodd"/><path fill="#ffffff" d="m282.4987 12.0l1.5013123 11.498688l-1.0 17.0l-22.501312 77.50131l-3.4986877 106.66667l30.0 8.0l33.0 16.0l-15.501312 -32.501312l3.0 -20.498688l56.501312 -83.50132l43.498688 -43.0l15.501312 -24.501308l-12.501312 31.501308l-38.498688 44.83465l-51.0 82.0l40.0 63.498688l6.0 16.333344l-8.0 24.0l16.498688 15.501312l12.501312 0.49868774l-11.0 -23.0l-3.5013123 -46.498703l7.5013123 -15.0l25.0 -5.0l90.0 32.000015l77.0 50.498688l-8.0 4.0l-68.0 -43.0l-100.50131 -27.000015l11.501312 66.50133l23.498688 -32.501312l21.501312 8.0l53.498688 87.50131l16.501312 86.49869l-9.0 -3.4986877l-15.0 -73.50131l-54.501312 -84.0l-26.498688 65.0l12.0 17.0l-15.0 35.501312l0 -36.501312l-9.0 -8.0l-11.0 1.0l9.498688 17.0l-32.0 34.0l-17.498688 -14.0l-5.0 12.0l7.0 11.0l24.0 9.0l-8.0 8.501312l-32.0 -12.0l-51.0 41.666656l53.0 23.498688l37.0 32.501312l74.0 26.498657l3.0 8.0l-87.0 -25.0l-91.0 -53.498657l-5.0 -19.501312l23.0 -34.0l25.498688 -20.0l13.0 0.50131226l-9.498688 -17.501312l-6.5013123 -1.0l0.50131226 11.0l-19.0 8.501312l-77.0 -11.0l15.0 105.49866l33.0 74.0l-3.5013123 7.501343l-42.498688 -85.50134l-18.0 -94.99997l6.4986877 -24.0l25.501312 -6.0l61.498688 12.501312l-1.0 -8.501312l-11.498688 -12.498688l-20.0 6.0l-17.501312 -3.0l-56.0 -45.501312l-62.498688 75.50131l-17.501312 59.498688l-17.0 25.0l-3.4986877 -4.0l15.0 -27.0l15.498688 -67.0l45.501312 -63.0l28.0 -16.0l12.0 3.0l-45.0 -44.666656l-100.50131 -33.000015l-55.498688 -16.0l0.49868774 -6.4986877l63.501312 13.0l96.0 26.498703l20.0 13.501312l-28.501312 -62.501328l-13.0 -11.0l9.501312 -14.0l19.0 9.0l6.4986877 -1.4986877l55.501312 17.0l0 -20.83464l8.498688 -74.0l29.501312 -80.49869z" fill-rule="evenodd"/><path stroke="#ffffff" stroke-width="4.0" stroke-linejoin="round" stroke-linecap="butt" d="m282.4987 12.0l1.5013123 11.498688l-1.0 17.0l-22.501312 77.50131l-3.4986877 106.66667l30.0 8.0l33.0 16.0l-15.501312 -32.501312l3.0 -20.498688l56.501312 -83.50132l43.498688 -43.0l15.501312 -24.501308l-12.501312 31.501308l-38.498688 44.83465l-51.0 82.0l40.0 63.498688l6.0 16.333344l-8.0 24.0l16.498688 15.501312l12.501312 0.49868774l-11.0 -23.0l-3.5013123 -46.498703l7.5013123 -15.0l25.0 -5.0l90.0 32.000015l77.0 50.498688l-8.0 4.0l-68.0 -43.0l-100.50131 -27.000015l11.501312 66.50133l23.498688 -32.501312l21.501312 8.0l53.498688 87.50131l16.501312 86.49869l-9.0 -3.4986877l-15.0 -73.50131l-54.501312 -84.0l-26.498688 65.0l12.0 17.0l-15.0 35.501312l0 -36.501312l-9.0 -8.0l-11.0 1.0l9.498688 17.0l-32.0 34.0l-17.498688 -14.0l-5.0 12.0l7.0 11.0l24.0 9.0l-8.0 8.501312l-32.0 -12.0l-51.0 41.666656l53.0 23.498688l37.0 32.501312l74.0 26.498657l3.0 8.0l-87.0 -25.0l-91.0 -53.498657l-5.0 -19.501312l23.0 -34.0l25.498688 -20.0l13.0 0.50131226l-9.498688 -17.501312l-6.5013123 -1.0l0.50131226 11.0l-19.0 8.501312l-77.0 -11.0l15.0 105.49866l33.0 74.0l-3.5013123 7.501343l-42.498688 -85.50134l-18.0 -94.99997l6.4986877 -24.0l25.501312 -6.0l61.498688 12.501312l-1.0 -8.501312l-11.498688 -12.498688l-20.0 6.0l-17.501312 -3.0l-56.0 -45.501312l-62.498688 75.50131l-17.501312 59.498688l-17.0 25.0l-3.4986877 -4.0l15.0 -27.0l15.498688 -67.0l45.501312 -63.0l28.0 -16.0l12.0 3.0l-45.0 -44.666656l-100.50131 -33.000015l-55.498688 -16.0l0.49868774 -6.4986877l63.501312 13.0l96.0 26.498703l20.0 13.501312l-28.501312 -62.501328l-13.0 -11.0l9.501312 -14.0l19.0 9.0l6.4986877 -1.4986877l55.501312 17.0l0 -20.83464l8.498688 -74.0l29.501312 -80.49869z" fill-rule="evenodd"/><path fill="#ffffff" d="m636.4147 549.49866l0 0c0 -7.7319336 6.2680664 -14.0 14.0 -14.0l0 0c3.7130737 0 7.273987 1.4750366 9.899536 4.100525c2.6254883 2.6255493 4.100464 6.1864624 4.100464 9.899475l0 0c0 7.7319946 -6.2680054 14.0 -14.0 14.0l0 0c-7.7319336 0 -14.0 -6.2680054 -14.0 -14.0z" fill-rule="evenodd"/><path stroke="#ffffff" stroke-width="4.0" stroke-linejoin="round" stroke-linecap="butt" d="m636.4147 549.49866l0 0c0 -7.7319336 6.2680664 -14.0 14.0 -14.0l0 0c3.7130737 0 7.273987 1.4750366 9.899536 4.100525c2.6254883 2.6255493 4.100464 6.1864624 4.100464 9.899475l0 0c0 7.7319946 -6.2680054 14.0 -14.0 14.0l0 0c-7.7319336 0 -14.0 -6.2680054 -14.0 -14.0z" fill-rule="evenodd"/><path fill="#ffffff" d="m636.4147 473.4987l0 0c0 -7.7319946 6.2680664 -14.0 14.0 -14.0l0 0c3.7130737 0 7.273987 1.4750061 9.899536 4.1004944c2.6254883 2.6255188 4.100464 6.1864624 4.100464 9.899506l0 0c0 7.7319946 -6.2680054 14.0 -14.0 14.0l0 0c-7.7319336 0 -14.0 -6.2680054 -14.0 -14.0z" fill-rule="evenodd"/><path stroke="#ffffff" stroke-width="4.0" stroke-linejoin="round" stroke-linecap="butt" d="m636.4147 473.4987l0 0c0 -7.7319946 6.2680664 -14.0 14.0 -14.0l0 0c3.7130737 0 7.273987 1.4750061 9.899536 4.1004944c2.6254883 2.6255188 4.100464 6.1864624 4.100464 9.899506l0 0c0 7.7319946 -6.2680054 14.0 -14.0 14.0l0 0c-7.7319336 0 -14.0 -6.2680054 -14.0 -14.0z" fill-rule="evenodd"/><path fill="#ffffff" d="m636.4147 625.49866l0 0c0 -7.7319336 6.2680664 -14.0 14.0 -14.0l0 0c3.7130737 0 7.273987 1.4750366 9.899536 4.100525c2.6254883 2.6255493 4.100464 6.1864624 4.100464 9.899475l0 0c0 7.7319946 -6.2680054 14.0 -14.0 14.0l0 0c-7.7319336 0 -14.0 -6.2680054 -14.0 -14.0z" fill-rule="evenodd"/><path stroke="#ffffff" stroke-width="4.0" stroke-linejoin="round" stroke-linecap="butt" d="m636.4147 625.49866l0 0c0 -7.7319336 6.2680664 -14.0 14.0 -14.0l0 0c3.7130737 0 7.273987 1.4750366 9.899536 4.100525c2.6254883 2.6255493 4.100464 6.1864624 4.100464 9.899475l0 0c0 7.7319946 -6.2680054 14.0 -14.0 14.0l0 0c-7.7319336 0 -14.0 -6.2680054 -14.0 -14.0z" fill-rule="evenodd"/><path fill="#ffffff" d="m699.4147 513.49866l0 0c0 -7.731964 6.2680664 -13.9999695 14.0 -13.9999695l0 0c3.7130737 0 7.273987 1.4750061 9.899536 4.1004944c2.6254883 2.6255188 4.100464 6.1864624 4.100464 9.899475l0 0c0 7.7319946 -6.2680054 14.0 -14.0 14.0l0 0c-7.7319336 0 -14.0 -6.2680054 -14.0 -14.0z" fill-rule="evenodd"/><path stroke="#ffffff" stroke-width="4.0" stroke-linejoin="round" stroke-linecap="butt" d="m699.4147 513.49866l0 0c0 -7.731964 6.2680664 -13.9999695 14.0 -13.9999695l0 0c3.7130737 0 7.273987 1.4750061 9.899536 4.1004944c2.6254883 2.6255188 4.100464 6.1864624 4.100464 9.899475l0 0c0 7.7319946 -6.2680054 14.0 -14.0 14.0l0 0c-7.7319336 0 -14.0 -6.2680054 -14.0 -14.0z" fill-rule="evenodd"/><path fill="#ffffff" d="m699.4147 585.49866l0 0c0 -7.7319336 6.2680664 -14.0 14.0 -14.0l0 0c3.7130737 0 7.273987 1.4750366 9.899536 4.100525c2.6254883 2.6255493 4.100464 6.1864624 4.100464 9.899475l0 0c0 7.7319946 -6.2680054 14.0 -14.0 14.0l0 0c-7.7319336 0 -14.0 -6.2680054 -14.0 -14.0z" fill-rule="evenodd"/><path stroke="#ffffff" stroke-width="4.0" stroke-linejoin="round" stroke-linecap="butt" d="m699.4147 585.49866l0 0c0 -7.7319336 6.2680664 -14.0 14.0 -14.0l0 0c3.7130737 0 7.273987 1.4750366 9.899536 4.100525c2.6254883 2.6255493 4.100464 6.1864624 4.100464 9.899475l0 0c0 7.7319946 -6.2680054 14.0 -14.0 14.0l0 0c-7.7319336 0 -14.0 -6.2680054 -14.0 -14.0z" fill-rule="evenodd"/><path fill="#ffffff" d="m573.4147 513.49866l0 0c0 -7.731964 6.2680664 -13.9999695 14.0 -13.9999695l0 0c3.7130737 0 7.273987 1.4750061 9.899536 4.1004944c2.6254883 2.6255188 4.100464 6.1864624 4.100464 9.899475l0 0c0 7.7319946 -6.2680054 14.0 -14.0 14.0l0 0c-7.7319336 0 -14.0 -6.2680054 -14.0 -14.0z" fill-rule="evenodd"/><path stroke="#ffffff" stroke-width="4.0" stroke-linejoin="round" stroke-linecap="butt" d="m573.4147 513.49866l0 0c0 -7.731964 6.2680664 -13.9999695 14.0 -13.9999695l0 0c3.7130737 0 7.273987 1.4750061 9.899536 4.1004944c2.6254883 2.6255188 4.100464 6.1864624 4.100464 9.899475l0 0c0 7.7319946 -6.2680054 14.0 -14.0 14.0l0 0c-7.7319336 0 -14.0 -6.2680054 -14.0 -14.0z" fill-rule="evenodd"/><path fill="#ffffff" d="m572.99866 585.49866l0 0c0 -7.7319336 6.2680664 -14.0 14.0 -14.0l0 0c3.7130737 0 7.273987 1.4750366 9.899536 4.100525c2.6254883 2.6255493 4.100464 6.1864624 4.100464 9.899475l0 0c0 7.7319946 -6.2680054 14.0 -14.0 14.0l0 0c-7.7319336 0 -14.0 -6.2680054 -14.0 -14.0z" fill-rule="evenodd"/><path stroke="#ffffff" stroke-width="4.0" stroke-linejoin="round" stroke-linecap="butt" d="m572.99866 585.49866l0 0c0 -7.7319336 6.2680664 -14.0 14.0 -14.0l0 0c3.7130737 0 7.273987 1.4750366 9.899536 4.100525c2.6254883 2.6255493 4.100464 6.1864624 4.100464 9.899475l0 0c0 7.7319946 -6.2680054 14.0 -14.0 14.0l0 0c-7.7319336 0 -14.0 -6.2680054 -14.0 -14.0z" fill-rule="evenodd"/><path fill="#ffffff" d="m490.9987 549.49866l0 0c0 -7.7319336 6.2680054 -14.0 14.0 -14.0l0 0c3.7130432 0 7.2739563 1.4750366 9.899506 4.100525c2.6254883 2.6255493 4.100464 6.1864624 4.100464 9.899475l0 0c0 7.7319946 -6.2680054 14.0 -13.9999695 14.0l0 0c-7.7319946 0 -14.0 -6.2680054 -14.0 -14.0z" fill-rule="evenodd"/><path stroke="#ffffff" stroke-width="4.0" stroke-linejoin="round" stroke-linecap="butt" d="m490.9987 549.49866l0 0c0 -7.7319336 6.2680054 -14.0 14.0 -14.0l0 0c3.7130432 0 7.2739563 1.4750366 9.899506 4.100525c2.6254883 2.6255493 4.100464 6.1864624 4.100464 9.899475l0 0c0 7.7319946 -6.2680054 14.0 -13.9999695 14.0l0 0c-7.7319946 0 -14.0 -6.2680054 -14.0 -14.0z" fill-rule="evenodd"/><path fill="#000000" fill-opacity="0.0" d="m597.3142 503.59918l43.212585 -20.188965" fill-rule="evenodd"/><path stroke="#ffffff" stroke-width="4.0" stroke-linejoin="round" stroke-linecap="butt" d="m597.3142 503.59918l43.212585 -20.188965" fill-rule="evenodd"/><path fill="#000000" fill-opacity="0.0" d="m660.3142 483.3982l43.212585 20.188965" fill-rule="evenodd"/><path stroke="#ffffff" stroke-width="4.0" stroke-linejoin="round" stroke-linecap="butt" d="m660.3142 483.3982l43.212585 20.188965" fill-rule="evenodd"/><path fill="#000000" fill-opacity="0.0" d="m713.4147 527.49866l0 44.0" fill-rule="evenodd"/><path stroke="#ffffff" stroke-width="4.0" stroke-linejoin="round" stroke-linecap="butt" d="m713.4147 527.49866l0 44.0" fill-rule="evenodd"/><path fill="#000000" fill-opacity="0.0" d="m703.5152 595.3982l-43.212585 20.188965" fill-rule="evenodd"/><path stroke="#ffffff" stroke-width="4.0" stroke-linejoin="round" stroke-linecap="butt" d="m703.5152 595.3982l-43.212585 20.188965" fill-rule="evenodd"/><path fill="#000000" fill-opacity="0.0" d="m640.5152 615.5992l-43.62207 -20.188965" fill-rule="evenodd"/><path stroke="#ffffff" stroke-width="4.0" stroke-linejoin="round" stroke-linecap="butt" d="m640.5152 615.5992l-43.62207 -20.188965" fill-rule="evenodd"/><path fill="#000000" fill-opacity="0.0" d="m587.4147 527.49866l-0.40942383 44.0" fill-rule="evenodd"/><path stroke="#ffffff" stroke-width="4.0" stroke-linejoin="round" stroke-linecap="butt" d="m587.4147 527.49866l-0.40942383 44.0" fill-rule="evenodd"/><path fill="#000000" fill-opacity="0.0" d="m597.3142 523.3982l43.212585 16.188965" fill-rule="evenodd"/><path stroke="#ffffff" stroke-width="4.0" stroke-linejoin="round" stroke-linecap="butt" d="m597.3142 523.3982l43.212585 16.188965" fill-rule="evenodd"/><path fill="#000000" fill-opacity="0.0" d="m596.8982 575.5992l43.62201 -16.188965" fill-rule="evenodd"/><path stroke="#ffffff" stroke-width="4.0" stroke-linejoin="round" stroke-linecap="butt" d="m596.8982 575.5992l43.62201 -16.188965" fill-rule="evenodd"/><path fill="#000000" fill-opacity="0.0" d="m650.4147 611.49866l0 -48.0" fill-rule="evenodd"/><path stroke="#ffffff" stroke-width="4.0" stroke-linejoin="round" stroke-linecap="butt" d="m650.4147 611.49866l0 -48.0" fill-rule="evenodd"/><path fill="#000000" fill-opacity="0.0" d="m650.4147 487.4987l0 47.99997" fill-rule="evenodd"/><path stroke="#ffffff" stroke-width="4.0" stroke-linejoin="round" stroke-linecap="butt" d="m650.4147 487.4987l0 47.99997" fill-rule="evenodd"/><path fill="#000000" fill-opacity="0.0" d="m703.5152 523.3982l-43.212585 16.188965" fill-rule="evenodd"/><path stroke="#ffffff" stroke-width="4.0" stroke-linejoin="round" stroke-linecap="butt" d="m703.5152 523.3982l-43.212585 16.188965" fill-rule="evenodd"/><path fill="#000000" fill-opacity="0.0" d="m660.3142 559.3982l43.212585 16.188965" fill-rule="evenodd"/><path stroke="#ffffff" stroke-width="4.0" stroke-linejoin="round" stroke-linecap="butt" d="m660.3142 559.3982l43.212585 16.188965" fill-rule="evenodd"/><path fill="#000000" fill-opacity="0.0" d="m514.8982 559.3982l58.11023 26.11023" fill-rule="evenodd"/><path stroke="#ffffff" stroke-width="4.0" stroke-linejoin="round" stroke-linecap="butt" d="m514.8982 559.3982l58.11023 26.11023" fill-rule="evenodd"/><path fill="#000000" fill-opacity="0.0" d="m514.8982 539.5992l58.519653 -26.11023" fill-rule="evenodd"/><path stroke="#ffffff" stroke-width="4.0" stroke-linejoin="round" stroke-linecap="butt" d="m514.8982 539.5992l58.519653 -26.11023" fill-rule="evenodd"/><path fill="#000000" fill-opacity="0.0" d="m514.8472 460.1661l-19.748047 79.433075" fill-rule="evenodd"/><path stroke="#ffffff" stroke-width="4.0" stroke-linejoin="round" stroke-linecap="butt" d="m514.8472 460.1661l-19.748047 79.433075" fill-rule="evenodd"/></g></svg>